<svg id="visual" viewBox="0 0 900 600" width="900" height="600" xmlns="http://www.w3.org/2000/svg" xmlns:xlink="http://www.w3.org/1999/xlink" version="1.1"><rect x="0" y="0" width="900" height="600" fill="#ffffff"></rect><path d="M0 351L30 356.3C60 361.7 120 372.3 180 386.8C240 401.3 300 419.7 360 415C420 410.3 480 382.7 540 380.3C600 378 660 401 720 402.3C780 403.7 840 383.3 870 373.2L900 363L900 601L870 601C840 601 780 601 720 601C660 601 600 601 540 601C480 601 420 601 360 601C300 601 240 601 180 601C120 601 60 601 30 601L0 601Z" fill="#cdc6c6"></path><path d="M0 430L30 438.7C60 447.3 120 464.7 180 467.2C240 469.7 300 457.3 360 451C420 444.7 480 444.3 540 450.8C600 457.3 660 470.7 720 463.2C780 455.7 840 427.3 870 413.2L900 399L900 601L870 601C840 601 780 601 720 601C660 601 600 601 540 601C480 601 420 601 360 601C300 601 240 601 180 601C120 601 60 601 30 601L0 601Z" fill="#b3adae"></path><path d="M0 506L30 505.2C60 504.3 120 502.7 180 493.7C240 484.7 300 468.3 360 464.8C420 461.3 480 470.7 540 478.3C600 486 660 492 720 491.3C780 490.7 840 483.3 870 479.7L900 476L900 601L870 601C840 601 780 601 720 601C660 601 600 601 540 601C480 601 420 601 360 601C300 601 240 601 180 601C120 601 60 601 30 601L0 601Z" fill="#999596"></path><path d="M0 537L30 529.2C60 521.3 120 505.7 180 498.8C240 492 300 494 360 495.8C420 497.7 480 499.3 540 506.3C600 513.3 660 525.7 720 527.3C780 529 840 520 870 515.5L900 511L900 601L870 601C840 601 780 601 720 601C660 601 600 601 540 601C480 601 420 601 360 601C300 601 240 601 180 601C120 601 60 601 30 601L0 601Z" fill="#807e7f"></path><path d="M0 545L30 550C60 555 120 565 180 567.7C240 570.3 300 565.7 360 563.3C420 561 480 561 540 561.5C600 562 660 563 720 556.3C780 549.7 840 535.3 870 528.2L900 521L900 601L870 601C840 601 780 601 720 601C660 601 600 601 540 601C480 601 420 601 360 601C300 601 240 601 180 601C120 601 60 601 30 601L0 601Z" fill="#686768"></path></svg>